<svg width="18" height="20" viewBox="0 0 18 20" fill="none" xmlns="http://www.w3.org/2000/svg">
<path d="M1.4031 14.7763L0.708388 15.0589L0.708389 15.0589L1.4031 14.7763ZM1.05609 9.14712L1.78006 9.34299L1.05609 9.14712ZM16.4439 9.14711L15.7199 9.34298L16.4439 9.14711ZM16.0969 14.7763L16.7916 15.0589V15.0589L16.0969 14.7763ZM10.7865 18.5918L10.6706 17.8508L10.7865 18.5918ZM6.71352 18.5918L6.82941 17.8508L6.71352 18.5918ZM5.40619 5.35213L5.25672 4.61718L5.40619 5.35213ZM12.0938 5.35213L12.2433 4.61718L12.2433 4.61718L12.0938 5.35213ZM5.96479 18.4747L5.8489 19.2157L5.96479 18.4747ZM1.49598 15.0046L2.19069 14.722L2.19069 14.722L1.49598 15.0046ZM11.5352 18.4747L11.6511 19.2157L11.5352 18.4747ZM16.004 15.0046L15.3093 14.722V14.722L16.004 15.0046ZM12.3699 5.40829L12.2205 6.14324L12.2205 6.14324L12.3699 5.40829ZM5.13009 5.40829L5.27956 6.14324L5.13009 5.40829ZM3.64397 5.18059C3.64397 5.59481 3.97976 5.93059 4.39397 5.93059C4.80819 5.93059 5.14397 5.59481 5.14397 5.18059H4.39397H3.64397ZM4.39397 4.87771H3.64397H4.39397ZM13.106 4.87772H12.356H13.106ZM12.356 5.1806C12.356 5.59481 12.6918 5.9306 13.106 5.9306C13.5202 5.9306 13.856 5.59481 13.856 5.1806H13.106H12.356ZM7.6017 0.891261L7.4197 0.163679L7.4197 0.163679L7.6017 0.891261ZM9.89823 0.891261L10.0802 0.16368V0.16368L9.89823 0.891261ZM5.13009 5.40829L5.27956 6.14324L5.55567 6.08709L5.40619 5.35213L5.25672 4.61718L4.98062 4.67333L5.13009 5.40829ZM12.0938 5.35213L11.9443 6.08709L12.2205 6.14324L12.3699 5.40829L12.5194 4.67333L12.2433 4.61718L12.0938 5.35213ZM11.5352 18.4747L11.4193 17.7337L10.6706 17.8508L10.7865 18.5918L10.9023 19.3328L11.6511 19.2157L11.5352 18.4747ZM6.71352 18.5918L6.82941 17.8508L6.08068 17.7337L5.96479 18.4747L5.8489 19.2157L6.59762 19.3328L6.71352 18.5918ZM16.0969 14.7763L15.4022 14.4937L15.3093 14.722L16.004 15.0046L16.6987 15.2873L16.7916 15.0589L16.0969 14.7763ZM1.49598 15.0046L2.19069 14.722L2.0978 14.4937L1.4031 14.7763L0.708389 15.0589L0.801277 15.2873L1.49598 15.0046ZM1.4031 14.7763L2.09781 14.4937C1.42941 12.8508 1.31858 11.0488 1.78006 9.34299L1.05609 9.14712L0.33212 8.95125C-0.215348 10.9748 -0.0832989 13.113 0.708388 15.0589L1.4031 14.7763ZM16.4439 9.14711L15.7199 9.34298C16.1814 11.0487 16.0706 12.8508 15.4022 14.4937L16.0969 14.7763L16.7916 15.0589C17.5833 13.113 17.7154 10.9748 17.1679 8.95125L16.4439 9.14711ZM10.7865 18.5918L10.6706 17.8508C9.39859 18.0497 8.10138 18.0497 6.82941 17.8508L6.71352 18.5918L6.59762 19.3328C8.02318 19.5557 9.47678 19.5557 10.9023 19.3328L10.7865 18.5918ZM5.40619 5.35213L5.55567 6.08709C7.6618 5.65875 9.83821 5.65875 11.9443 6.08709L12.0938 5.35213L12.2433 4.61718C9.93988 4.14872 7.56013 4.14872 5.25672 4.61718L5.40619 5.35213ZM5.96479 18.4747L6.08068 17.7337C4.30628 17.4562 2.83366 16.3024 2.19069 14.722L1.49598 15.0046L0.801276 15.2873C1.65076 17.3753 3.57633 18.8602 5.8489 19.2157L5.96479 18.4747ZM11.5352 18.4747L11.6511 19.2157C13.9236 18.8602 15.8492 17.3753 16.6987 15.2873L16.004 15.0046L15.3093 14.722C14.6663 16.3024 13.1937 17.4562 11.4193 17.7337L11.5352 18.4747ZM12.3699 5.40829L12.2205 6.14324C13.9412 6.4932 15.2868 7.74212 15.7199 9.34298L16.4439 9.14711L17.1679 8.95125C16.5798 6.77766 14.7705 5.13115 12.5194 4.67333L12.3699 5.40829ZM5.13009 5.40829L4.98062 4.67333C2.72952 5.13115 0.920178 6.77766 0.33212 8.95125L1.05609 9.14712L1.78006 9.34299C2.21317 7.74212 3.55883 6.4932 5.27956 6.14324L5.13009 5.40829ZM4.39397 5.18059H5.14397V4.87771H4.39397H3.64397V5.18059H4.39397ZM13.106 4.87772H12.356V5.1806H13.106H13.856V4.87772H13.106ZM7.6017 0.891261L7.78371 1.61884C8.41717 1.46039 9.08277 1.46039 9.71623 1.61884L9.89823 0.891261L10.0802 0.16368C9.20779 -0.0545598 8.29215 -0.0545599 7.4197 0.163679L7.6017 0.891261ZM13.106 4.87772H13.856C13.856 2.63982 12.285 0.715185 10.0802 0.16368L9.89823 0.891261L9.71623 1.61884C11.2899 2.0125 12.356 3.36508 12.356 4.87772H13.106ZM4.39397 4.87771H5.14397C5.14397 3.36508 6.21002 2.0125 7.78371 1.61884L7.6017 0.891261L7.4197 0.163679C5.21497 0.715185 3.64397 2.63982 3.64397 4.87771H4.39397Z" fill="#363853"/>
</svg>
